<svg width="70" height="59" viewBox="0 0 70 59" fill="none" xmlns="http://www.w3.org/2000/svg">
<path d="M26.2012 3.25C26.7424 2.31266 28.0442 2.25413 28.6807 3.07422L28.7988 3.25L39.624 22C40.2014 23 39.4799 24.25 38.3252 24.25H16.6748C15.5201 24.25 14.7986 23 15.376 22L26.2012 3.25Z" fill="white" stroke="#BCB9BC"/>
<path d="M42.2012 3.25C42.7424 2.31266 44.0442 2.25413 44.6807 3.07422L44.7988 3.25L55.624 22C56.2014 23 55.4799 24.25 54.3252 24.25H32.6748C31.5201 24.25 30.7986 23 31.376 22L42.2012 3.25Z" fill="white" stroke="#BCB9BC"/>
<path d="M14.9574 37.096C14.6107 37.096 14.32 37.0213 14.0854 36.872C13.8507 36.7173 13.6774 36.52 13.5654 36.28C13.4534 36.04 13.3974 35.7867 13.3974 35.52C13.3974 35.1787 13.4827 34.8827 13.6534 34.632C13.824 34.376 14.0427 34.1813 14.3094 34.048C14.5814 33.9093 14.8587 33.84 15.1414 33.84C15.376 33.84 15.5894 33.888 15.7814 33.984C15.9787 34.0747 16.0774 34.1893 16.0774 34.328C16.0774 34.3973 16.0507 34.4587 15.9974 34.512C15.9494 34.56 15.8827 34.584 15.7974 34.584C15.6534 34.584 15.536 34.496 15.4454 34.32C15.376 34.2133 15.3014 34.1333 15.2214 34.08C15.1414 34.0267 15.0267 34 14.8774 34C14.5787 34 14.344 34.1173 14.1734 34.352C14.008 34.5813 13.9254 34.8907 13.9254 35.28C13.9254 35.728 14.0374 36.096 14.2614 36.384C14.4854 36.672 14.8214 36.816 15.2694 36.816C15.5947 36.816 15.8667 36.728 16.0854 36.552H16.0934C16.1094 36.552 16.1227 36.56 16.1334 36.576C16.1494 36.592 16.152 36.6053 16.1414 36.616C15.9547 36.7813 15.7654 36.904 15.5734 36.984C15.3867 37.0587 15.1814 37.096 14.9574 37.096ZM18.1996 37.104C17.8902 37.104 17.6156 37.0293 17.3756 36.88C17.1409 36.7253 16.9596 36.52 16.8316 36.264C16.7036 36.0027 16.6396 35.72 16.6396 35.416C16.6396 35.0693 16.7222 34.776 16.8876 34.536C17.0582 34.2907 17.2742 34.1093 17.5356 33.992C17.8022 33.8693 18.0716 33.808 18.3436 33.808C18.6582 33.808 18.9329 33.8853 19.1676 34.04C19.4022 34.1947 19.5809 34.4 19.7036 34.656C19.8316 34.9067 19.8956 35.1733 19.8956 35.456C19.8956 35.7867 19.8182 36.0773 19.6636 36.328C19.5089 36.5733 19.3009 36.7653 19.0396 36.904C18.7836 37.0373 18.5036 37.104 18.1996 37.104ZM18.4316 36.952C18.7249 36.952 18.9516 36.848 19.1116 36.64C19.2716 36.432 19.3516 36.112 19.3516 35.68C19.3516 35.3493 19.2956 35.0533 19.1836 34.792C19.0769 34.5307 18.9276 34.328 18.7356 34.184C18.5436 34.0347 18.3249 33.96 18.0796 33.96C17.7916 33.96 17.5676 34.064 17.4076 34.272C17.2529 34.48 17.1756 34.7787 17.1756 35.168C17.1756 35.4933 17.2289 35.792 17.3356 36.064C17.4422 36.336 17.5916 36.552 17.7836 36.712C17.9756 36.872 18.1916 36.952 18.4316 36.952ZM22.6917 37C22.6757 37 22.6677 36.984 22.6677 36.952C22.6677 36.92 22.6757 36.904 22.6917 36.904C22.8357 36.904 22.9424 36.8907 23.0117 36.864C23.081 36.832 23.1264 36.7787 23.1477 36.704C23.1744 36.6293 23.1877 36.512 23.1877 36.352V35.056C23.1877 34.736 23.1264 34.504 23.0037 34.36C22.8864 34.2107 22.7024 34.136 22.4517 34.136C22.2544 34.136 22.0544 34.1973 21.8517 34.32C21.6544 34.4427 21.4837 34.6107 21.3397 34.824L21.3077 34.728C21.5424 34.4133 21.7744 34.1813 22.0037 34.032C22.233 33.8827 22.4704 33.808 22.7157 33.808C23.009 33.808 23.2357 33.8933 23.3957 34.064C23.561 34.2293 23.6437 34.4693 23.6437 34.784V36.352C23.6437 36.512 23.6544 36.6293 23.6757 36.704C23.7024 36.7787 23.7504 36.832 23.8197 36.864C23.889 36.8907 23.9957 36.904 24.1397 36.904C24.1557 36.904 24.1637 36.92 24.1637 36.952C24.1637 36.984 24.1557 37 24.1397 37C24.017 37 23.921 36.9973 23.8517 36.992L23.4197 36.984L22.9797 36.992C22.9104 36.9973 22.8144 37 22.6917 37ZM20.5397 37C20.5237 37 20.5157 36.984 20.5157 36.952C20.5157 36.92 20.5237 36.904 20.5397 36.904C20.6837 36.904 20.7904 36.8907 20.8597 36.864C20.929 36.832 20.9744 36.7787 20.9957 36.704C21.0224 36.6293 21.0357 36.512 21.0357 36.352V34.768C21.0357 34.5867 21.0144 34.456 20.9717 34.376C20.929 34.296 20.857 34.256 20.7557 34.256C20.6704 34.256 20.5264 34.296 20.3237 34.376H20.3077C20.2864 34.376 20.2704 34.3653 20.2597 34.344C20.2544 34.3173 20.2624 34.2987 20.2837 34.288L21.2117 33.848C21.2224 33.8427 21.2384 33.84 21.2597 33.84C21.3077 33.84 21.3584 33.9013 21.4117 34.024C21.465 34.1467 21.4917 34.304 21.4917 34.496V36.352C21.4917 36.512 21.5024 36.6293 21.5237 36.704C21.5504 36.7787 21.5984 36.832 21.6677 36.864C21.737 36.8907 21.8437 36.904 21.9877 36.904C22.0037 36.904 22.0117 36.92 22.0117 36.952C22.0117 36.984 22.0037 37 21.9877 37C21.865 37 21.769 36.9973 21.6997 36.992L21.2677 36.984L20.8277 36.992C20.7584 36.9973 20.6624 37 20.5397 37ZM25.8485 37.104C25.6245 37.104 25.4165 37.04 25.2245 36.912C25.0378 36.784 24.8858 36.6053 24.7685 36.376C24.6565 36.1413 24.6005 35.8747 24.6005 35.576C24.6005 35.1973 24.6938 34.8747 24.8805 34.608C25.0672 34.3413 25.3018 34.1413 25.5845 34.008C25.8672 33.8747 26.1472 33.808 26.4245 33.808C26.7925 33.808 27.1178 33.928 27.4005 34.168L27.3125 34.704C27.1685 34.4693 27.0112 34.288 26.8405 34.16C26.6698 34.032 26.4592 33.968 26.2085 33.968C25.8725 33.968 25.6058 34.088 25.4085 34.328C25.2165 34.5627 25.1205 34.8987 25.1205 35.336C25.1205 35.6293 25.1658 35.888 25.2565 36.112C25.3472 36.336 25.4698 36.5093 25.6245 36.632C25.7845 36.7547 25.9632 36.816 26.1605 36.816C26.3792 36.816 26.5792 36.7573 26.7605 36.64C26.9418 36.5227 27.1312 36.3547 27.3285 36.136L27.3925 36.192C27.1472 36.4693 26.9072 36.6907 26.6725 36.856C26.4378 37.0213 26.1632 37.104 25.8485 37.104ZM27.6405 36.12C27.6405 36.312 27.6618 36.4507 27.7045 36.536C27.7525 36.6213 27.8272 36.664 27.9285 36.664C28.0832 36.664 28.2218 36.6267 28.3445 36.552L28.3605 36.544C28.3818 36.544 28.3952 36.5573 28.4005 36.584C28.4112 36.6107 28.4085 36.6293 28.3925 36.64L27.5125 37.056C27.4912 37.0667 27.4698 37.072 27.4485 37.072C27.3792 37.072 27.3178 37.008 27.2645 36.88C27.2165 36.752 27.1925 36.576 27.1925 36.352V32.224C27.1925 32.032 27.1712 31.8933 27.1285 31.808C27.0912 31.7227 27.0245 31.68 26.9285 31.68C26.8592 31.68 26.7365 31.7173 26.5605 31.792H26.5445C26.5232 31.792 26.5072 31.7813 26.4965 31.76C26.4912 31.7333 26.4965 31.7147 26.5125 31.704L27.5285 31.208C27.5392 31.2027 27.5525 31.2 27.5685 31.2C27.5845 31.2 27.6005 31.208 27.6165 31.224C27.6325 31.2347 27.6405 31.248 27.6405 31.264V36.12ZM30.2543 37.104C29.9449 37.104 29.6703 37.0293 29.4303 36.88C29.1956 36.7253 29.0143 36.52 28.8863 36.264C28.7583 36.0027 28.6943 35.72 28.6943 35.416C28.6943 35.0693 28.7769 34.776 28.9423 34.536C29.1129 34.2907 29.3289 34.1093 29.5903 33.992C29.8569 33.8693 30.1263 33.808 30.3983 33.808C30.7129 33.808 30.9876 33.8853 31.2223 34.04C31.4569 34.1947 31.6356 34.4 31.7583 34.656C31.8863 34.9067 31.9503 35.1733 31.9503 35.456C31.9503 35.7867 31.8729 36.0773 31.7183 36.328C31.5636 36.5733 31.3556 36.7653 31.0943 36.904C30.8383 37.0373 30.5583 37.104 30.2543 37.104ZM30.4863 36.952C30.7796 36.952 31.0063 36.848 31.1663 36.64C31.3263 36.432 31.4063 36.112 31.4063 35.68C31.4063 35.3493 31.3503 35.0533 31.2383 34.792C31.1316 34.5307 30.9823 34.328 30.7903 34.184C30.5983 34.0347 30.3796 33.96 30.1343 33.96C29.8463 33.96 29.6223 34.064 29.4622 34.272C29.3076 34.48 29.2303 34.7787 29.2303 35.168C29.2303 35.4933 29.2836 35.792 29.3903 36.064C29.4969 36.336 29.6463 36.552 29.8383 36.712C30.0303 36.872 30.2463 36.952 30.4863 36.952ZM36.7144 37C36.6984 37 36.6904 36.984 36.6904 36.952C36.6904 36.92 36.6984 36.904 36.7144 36.904C36.8584 36.904 36.965 36.8907 37.0344 36.864C37.1037 36.832 37.1517 36.7787 37.1784 36.704C37.205 36.624 37.2184 36.5067 37.2184 36.352V35.08C37.2184 34.7653 37.1624 34.5307 37.0504 34.376C36.9384 34.2213 36.765 34.144 36.5304 34.144C36.3437 34.144 36.1517 34.208 35.9544 34.336C35.7624 34.4587 35.597 34.6267 35.4584 34.84L35.4264 34.744C35.6504 34.4293 35.8717 34.2 36.0904 34.056C36.3144 33.9067 36.549 33.832 36.7944 33.832C37.077 33.832 37.293 33.912 37.4424 34.072C37.5917 34.232 37.6664 34.4747 37.6664 34.8V36.352C37.6664 36.512 37.6797 36.6293 37.7064 36.704C37.733 36.7787 37.781 36.832 37.8504 36.864C37.9197 36.8907 38.0264 36.904 38.1704 36.904C38.1864 36.904 38.1944 36.92 38.1944 36.952C38.1944 36.984 38.1864 37 38.1704 37C38.0477 37 37.949 36.9973 37.8744 36.992L37.4424 36.984L37.0104 36.992C36.9357 36.9973 36.837 37 36.7144 37ZM34.6504 37C34.6344 37 34.6264 36.984 34.6264 36.952C34.6264 36.92 34.6344 36.904 34.6504 36.904C34.7944 36.904 34.901 36.8907 34.9704 36.864C35.0397 36.832 35.085 36.7787 35.1064 36.704C35.133 36.6293 35.1464 36.512 35.1464 36.352V35.08C35.1464 34.7653 35.0904 34.5307 34.9784 34.376C34.8664 34.2213 34.6957 34.144 34.4664 34.144C34.2744 34.144 34.0824 34.208 33.8904 34.336C33.6984 34.4587 33.533 34.6267 33.3944 34.84L33.3624 34.744C33.5864 34.4293 33.8077 34.2 34.0264 34.056C34.2504 33.9067 34.4824 33.832 34.7224 33.832C35.005 33.832 35.221 33.912 35.3704 34.072C35.525 34.232 35.6024 34.4693 35.6024 34.784V36.352C35.6024 36.512 35.6157 36.6293 35.6424 36.704C35.669 36.7787 35.717 36.832 35.7864 36.864C35.8557 36.8907 35.9624 36.904 36.1064 36.904C36.1224 36.904 36.1304 36.92 36.1304 36.952C36.1304 36.984 36.1224 37 36.1064 37C35.9837 37 35.885 36.9973 35.8104 36.992L35.3784 36.984L34.9384 36.992C34.869 36.9973 34.773 37 34.6504 37ZM32.5944 37C32.5784 37 32.5704 36.984 32.5704 36.952C32.5704 36.92 32.5784 36.904 32.5944 36.904C32.7384 36.904 32.845 36.8907 32.9144 36.864C32.9837 36.832 33.029 36.7787 33.0504 36.704C33.077 36.6293 33.0904 36.512 33.0904 36.352V34.768C33.0904 34.5867 33.069 34.456 33.0264 34.376C32.9837 34.296 32.9117 34.256 32.8104 34.256C32.725 34.256 32.581 34.296 32.3784 34.376H32.3624C32.341 34.376 32.325 34.3653 32.3144 34.344C32.309 34.3173 32.317 34.2987 32.3384 34.288L33.2664 33.848C33.277 33.8427 33.293 33.84 33.3144 33.84C33.3624 33.84 33.413 33.9013 33.4664 34.024C33.5197 34.1467 33.5464 34.304 33.5464 34.496V36.352C33.5464 36.512 33.557 36.6293 33.5784 36.704C33.605 36.7787 33.653 36.832 33.7224 36.864C33.7917 36.8907 33.8984 36.904 34.0424 36.904C34.0584 36.904 34.0664 36.92 34.0664 36.952C34.0664 36.984 34.0584 37 34.0424 37C33.9197 37 33.8237 36.9973 33.7544 36.992L33.3224 36.984L32.8824 36.992C32.813 36.9973 32.717 37 32.5944 37ZM38.7599 37C38.7493 37 38.7439 36.984 38.7439 36.952C38.7439 36.92 38.7493 36.904 38.7599 36.904C38.9039 36.904 39.0106 36.8907 39.0799 36.864C39.1546 36.832 39.2053 36.7787 39.2319 36.704C39.2586 36.6293 39.2719 36.512 39.2719 36.352V34.856C39.2719 34.664 39.2506 34.5253 39.2079 34.44C39.1706 34.3547 39.1039 34.312 39.0079 34.312C38.9119 34.312 38.7919 34.3493 38.6479 34.424H38.6399C38.6186 34.424 38.6026 34.4107 38.5919 34.384C38.5813 34.3573 38.5839 34.3387 38.5999 34.328L39.6399 33.848L39.6719 33.84C39.6826 33.84 39.6959 33.848 39.7119 33.864C39.7279 33.8747 39.7359 33.888 39.7359 33.904C39.7359 33.9413 39.7333 34.048 39.7279 34.224C39.7226 34.4 39.7199 34.608 39.7199 34.848V36.352C39.7199 36.512 39.7333 36.6293 39.7599 36.704C39.7866 36.7787 39.8346 36.832 39.9039 36.864C39.9733 36.8907 40.0799 36.904 40.2239 36.904C40.2399 36.904 40.2479 36.92 40.2479 36.952C40.2479 36.984 40.2399 37 40.2239 37C40.1013 37 40.0026 36.9973 39.9279 36.992L39.4959 36.984L39.0639 36.992C38.9893 36.9973 38.8879 37 38.7599 37ZM39.4319 32.904C39.3253 32.904 39.2399 32.8747 39.1759 32.816C39.1119 32.7573 39.0799 32.6747 39.0799 32.568C39.0799 32.4613 39.1119 32.3787 39.1759 32.32C39.2399 32.2613 39.3253 32.232 39.4319 32.232C39.5386 32.232 39.6213 32.2613 39.6799 32.32C39.7386 32.3787 39.7679 32.4613 39.7679 32.568C39.7679 32.6747 39.7386 32.7573 39.6799 32.816C39.6213 32.8747 39.5386 32.904 39.4319 32.904ZM43.0354 37C43.0194 37 43.0114 36.984 43.0114 36.952C43.0114 36.92 43.0194 36.904 43.0354 36.904C43.1794 36.904 43.2861 36.8907 43.3554 36.864C43.4248 36.832 43.4701 36.7787 43.4914 36.704C43.5181 36.6293 43.5314 36.512 43.5314 36.352V35.056C43.5314 34.736 43.4701 34.504 43.3474 34.36C43.2301 34.2107 43.0461 34.136 42.7954 34.136C42.5981 34.136 42.3981 34.1973 42.1954 34.32C41.9981 34.4427 41.8274 34.6107 41.6834 34.824L41.6514 34.728C41.8861 34.4133 42.1181 34.1813 42.3474 34.032C42.5768 33.8827 42.8141 33.808 43.0594 33.808C43.3528 33.808 43.5794 33.8933 43.7394 34.064C43.9048 34.2293 43.9874 34.4693 43.9874 34.784V36.352C43.9874 36.512 43.9981 36.6293 44.0194 36.704C44.0461 36.7787 44.0941 36.832 44.1634 36.864C44.2328 36.8907 44.3394 36.904 44.4834 36.904C44.4994 36.904 44.5074 36.92 44.5074 36.952C44.5074 36.984 44.4994 37 44.4834 37C44.3608 37 44.2648 36.9973 44.1954 36.992L43.7634 36.984L43.3234 36.992C43.2541 36.9973 43.1581 37 43.0354 37ZM40.8834 37C40.8674 37 40.8594 36.984 40.8594 36.952C40.8594 36.92 40.8674 36.904 40.8834 36.904C41.0274 36.904 41.1341 36.8907 41.2034 36.864C41.2728 36.832 41.3181 36.7787 41.3394 36.704C41.3661 36.6293 41.3794 36.512 41.3794 36.352V34.768C41.3794 34.5867 41.3581 34.456 41.3154 34.376C41.2728 34.296 41.2008 34.256 41.0994 34.256C41.0141 34.256 40.8701 34.296 40.6674 34.376H40.6514C40.6301 34.376 40.6141 34.3653 40.6034 34.344C40.5981 34.3173 40.6061 34.2987 40.6274 34.288L41.5554 33.848C41.5661 33.8427 41.5821 33.84 41.6034 33.84C41.6514 33.84 41.7021 33.9013 41.7554 34.024C41.8088 34.1467 41.8354 34.304 41.8354 34.496V36.352C41.8354 36.512 41.8461 36.6293 41.8674 36.704C41.8941 36.7787 41.9421 36.832 42.0114 36.864C42.0808 36.8907 42.1874 36.904 42.3314 36.904C42.3474 36.904 42.3554 36.92 42.3554 36.952C42.3554 36.984 42.3474 37 42.3314 37C42.2088 37 42.1128 36.9973 42.0434 36.992L41.6114 36.984L41.1714 36.992C41.1021 36.9973 41.0061 37 40.8834 37ZM45.0803 37C45.0696 37 45.0643 36.984 45.0643 36.952C45.0643 36.92 45.0696 36.904 45.0803 36.904C45.2243 36.904 45.3309 36.8907 45.4003 36.864C45.4749 36.832 45.5256 36.7787 45.5523 36.704C45.5789 36.6293 45.5923 36.512 45.5923 36.352V34.856C45.5923 34.664 45.5709 34.5253 45.5283 34.44C45.4909 34.3547 45.4243 34.312 45.3283 34.312C45.2323 34.312 45.1123 34.3493 44.9683 34.424H44.9603C44.9389 34.424 44.9229 34.4107 44.9123 34.384C44.9016 34.3573 44.9043 34.3387 44.9202 34.328L45.9603 33.848L45.9923 33.84C46.0029 33.84 46.0163 33.848 46.0323 33.864C46.0483 33.8747 46.0563 33.888 46.0563 33.904C46.0563 33.9413 46.0536 34.048 46.0483 34.224C46.0429 34.4 46.0403 34.608 46.0403 34.848V36.352C46.0403 36.512 46.0536 36.6293 46.0803 36.704C46.1069 36.7787 46.1549 36.832 46.2243 36.864C46.2936 36.8907 46.4003 36.904 46.5443 36.904C46.5603 36.904 46.5683 36.92 46.5683 36.952C46.5683 36.984 46.5603 37 46.5443 37C46.4216 37 46.3229 36.9973 46.2483 36.992L45.8163 36.984L45.3843 36.992C45.3096 36.9973 45.2083 37 45.0803 37ZM45.7523 32.904C45.6456 32.904 45.5603 32.8747 45.4963 32.816C45.4323 32.7573 45.4003 32.6747 45.4003 32.568C45.4003 32.4613 45.4323 32.3787 45.4963 32.32C45.5603 32.2613 45.6456 32.232 45.7523 32.232C45.8589 32.232 45.9416 32.2613 46.0003 32.32C46.0589 32.3787 46.0883 32.4613 46.0883 32.568C46.0883 32.6747 46.0589 32.7573 46.0003 32.816C45.9416 32.8747 45.8589 32.904 45.7523 32.904ZM48.2998 37.064C48.0331 37.064 47.8251 36.9813 47.6758 36.816C47.5264 36.6453 47.4518 36.4 47.4518 36.08V34.856C47.4518 34.648 47.4331 34.4987 47.3958 34.408C47.3584 34.312 47.2971 34.264 47.2118 34.264C47.1371 34.264 47.0464 34.2907 46.9398 34.344H46.9318C46.9104 34.344 46.8944 34.3307 46.8838 34.304C46.8731 34.272 46.8784 34.2533 46.8998 34.248L47.7878 33.848L47.8198 33.84C47.8358 33.84 47.8518 33.848 47.8678 33.864C47.8891 33.8747 47.8997 33.888 47.8997 33.904V35.816C47.8997 36.4347 48.1238 36.744 48.5718 36.744C48.7744 36.744 48.9798 36.6827 49.1878 36.56C49.3958 36.4373 49.5744 36.272 49.7238 36.064L49.7638 36.152C49.5238 36.4667 49.2838 36.6987 49.0438 36.848C48.8038 36.992 48.5558 37.064 48.2998 37.064ZM50.0198 36.144C50.0198 36.3253 50.0411 36.456 50.0838 36.536C50.1264 36.616 50.1984 36.656 50.2998 36.656C50.3904 36.656 50.5318 36.6187 50.7238 36.544H50.7398C50.7611 36.544 50.7744 36.5573 50.7798 36.584C50.7904 36.6053 50.7851 36.6213 50.7638 36.632L49.8278 37.072L49.7958 37.08C49.7424 37.08 49.6918 37.0187 49.6438 36.896C49.5958 36.7733 49.5718 36.6133 49.5718 36.416V34.856C49.5718 34.6427 49.5531 34.4907 49.5158 34.4C49.4838 34.3093 49.4224 34.264 49.3318 34.264C49.2571 34.264 49.1664 34.2907 49.0598 34.344H49.0518C49.0304 34.344 49.0144 34.3307 49.0038 34.304C48.9984 34.272 49.0064 34.2533 49.0278 34.248L49.9158 33.848L49.9398 33.84C49.9558 33.84 49.9718 33.848 49.9878 33.864C50.0091 33.8747 50.0198 33.888 50.0198 33.904V36.144ZM55.2691 37C55.2531 37 55.2451 36.984 55.2451 36.952C55.2451 36.92 55.2531 36.904 55.2691 36.904C55.4131 36.904 55.5197 36.8907 55.5891 36.864C55.6584 36.832 55.7064 36.7787 55.7331 36.704C55.7597 36.624 55.7731 36.5067 55.7731 36.352V35.08C55.7731 34.7653 55.7171 34.5307 55.6051 34.376C55.4931 34.2213 55.3197 34.144 55.0851 34.144C54.8984 34.144 54.7064 34.208 54.5091 34.336C54.3171 34.4587 54.1517 34.6267 54.0131 34.84L53.9811 34.744C54.2051 34.4293 54.4264 34.2 54.6451 34.056C54.8691 33.9067 55.1037 33.832 55.3491 33.832C55.6317 33.832 55.8477 33.912 55.9971 34.072C56.1464 34.232 56.2211 34.4747 56.2211 34.8V36.352C56.2211 36.512 56.2344 36.6293 56.2611 36.704C56.2877 36.7787 56.3357 36.832 56.4051 36.864C56.4744 36.8907 56.5811 36.904 56.7251 36.904C56.7411 36.904 56.7491 36.92 56.7491 36.952C56.7491 36.984 56.7411 37 56.7251 37C56.6024 37 56.5037 36.9973 56.4291 36.992L55.9971 36.984L55.5651 36.992C55.4904 36.9973 55.3917 37 55.2691 37ZM53.2051 37C53.1891 37 53.1811 36.984 53.1811 36.952C53.1811 36.92 53.1891 36.904 53.2051 36.904C53.3491 36.904 53.4557 36.8907 53.5251 36.864C53.5944 36.832 53.6397 36.7787 53.6611 36.704C53.6877 36.6293 53.7011 36.512 53.7011 36.352V35.08C53.7011 34.7653 53.6451 34.5307 53.5331 34.376C53.4211 34.2213 53.2504 34.144 53.0211 34.144C52.8291 34.144 52.6371 34.208 52.4451 34.336C52.2531 34.4587 52.0877 34.6267 51.9491 34.84L51.9171 34.744C52.1411 34.4293 52.3624 34.2 52.5811 34.056C52.8051 33.9067 53.0371 33.832 53.2771 33.832C53.5597 33.832 53.7757 33.912 53.9251 34.072C54.0797 34.232 54.1571 34.4693 54.1571 34.784V36.352C54.1571 36.512 54.1704 36.6293 54.1971 36.704C54.2237 36.7787 54.2717 36.832 54.3411 36.864C54.4104 36.8907 54.5171 36.904 54.6611 36.904C54.6771 36.904 54.6851 36.92 54.6851 36.952C54.6851 36.984 54.6771 37 54.6611 37C54.5384 37 54.4397 36.9973 54.3651 36.992L53.9331 36.984L53.4931 36.992C53.4237 36.9973 53.3277 37 53.2051 37ZM51.1491 37C51.1331 37 51.1251 36.984 51.1251 36.952C51.1251 36.92 51.1331 36.904 51.1491 36.904C51.2931 36.904 51.3997 36.8907 51.4691 36.864C51.5384 36.832 51.5837 36.7787 51.6051 36.704C51.6317 36.6293 51.6451 36.512 51.6451 36.352V34.768C51.6451 34.5867 51.6237 34.456 51.5811 34.376C51.5384 34.296 51.4664 34.256 51.3651 34.256C51.2797 34.256 51.1357 34.296 50.9331 34.376H50.9171C50.8957 34.376 50.8797 34.3653 50.8691 34.344C50.8637 34.3173 50.8717 34.2987 50.8931 34.288L51.8211 33.848C51.8317 33.8427 51.8477 33.84 51.8691 33.84C51.9171 33.84 51.9677 33.9013 52.0211 34.024C52.0744 34.1467 52.1011 34.304 52.1011 34.496V36.352C52.1011 36.512 52.1117 36.6293 52.1331 36.704C52.1597 36.7787 52.2077 36.832 52.2771 36.864C52.3464 36.8907 52.4531 36.904 52.5971 36.904C52.6131 36.904 52.6211 36.92 52.6211 36.952C52.6211 36.984 52.6131 37 52.5971 37C52.4744 37 52.3784 36.9973 52.3091 36.992L51.8771 36.984L51.4371 36.992C51.3677 36.9973 51.2717 37 51.1491 37ZM2.77311 55.876C2.60511 55.876 2.52111 55.804 2.52111 55.66C2.52111 55.628 2.52511 55.468 2.53311 55.18C2.54911 54.892 2.56511 54.528 2.58111 54.088C2.60511 53.648 2.62111 53.176 2.62911 52.672C2.64511 52.168 2.65311 51.688 2.65311 51.232V50.176C2.35711 50.864 2.02911 51.512 1.66911 52.12C1.30911 52.728 0.957109 53.244 0.613109 53.668C0.565109 53.676 0.521109 53.664 0.481109 53.632C0.441109 53.6 0.421109 53.56 0.421109 53.512C0.653109 53.096 0.901109 52.604 1.16511 52.036C1.42911 51.468 1.68111 50.86 1.92111 50.212C2.16911 49.556 2.36911 48.896 2.52111 48.232H1.34511C1.34511 48.232 1.27711 48.236 1.14111 48.244C1.01311 48.244 0.865109 48.26 0.697109 48.292L0.601109 47.776C0.801109 47.824 0.973109 47.852 1.11711 47.86C1.26111 47.868 1.33311 47.872 1.33311 47.872H2.65311V45.772C2.65311 45.5 2.62111 45.312 2.55711 45.208C2.52511 45.168 2.52911 45.128 2.56911 45.088C2.59311 45.048 2.62911 45.036 2.67711 45.052C2.80511 45.076 2.98111 45.112 3.20511 45.16C3.43711 45.208 3.61711 45.252 3.74511 45.292C3.82511 45.316 3.85711 45.364 3.84111 45.436C3.84111 45.484 3.82911 45.516 3.80511 45.532C3.78111 45.548 3.75311 45.56 3.72111 45.568C3.63311 45.576 3.54511 45.592 3.45711 45.616C3.37711 45.64 3.33711 45.716 3.33711 45.844V47.872H3.84111C3.89711 47.872 3.94111 47.856 3.97311 47.824C4.01311 47.768 4.07311 47.692 4.15311 47.596C4.24111 47.492 4.30111 47.42 4.33311 47.38C4.40511 47.308 4.48111 47.304 4.56111 47.368C4.64111 47.424 4.74111 47.512 4.86111 47.632C4.98911 47.752 5.09311 47.848 5.17311 47.92C5.23711 47.992 5.25711 48.064 5.23311 48.136C5.21711 48.2 5.17711 48.232 5.11311 48.232H3.33711V49.732C3.48911 49.812 3.65311 49.916 3.82911 50.044C4.00511 50.164 4.17711 50.3 4.34511 50.452C4.59311 50.156 4.83311 49.804 5.06511 49.396C5.30511 48.988 5.50911 48.552 5.67711 48.088C5.84511 47.624 5.94511 47.164 5.97711 46.708C5.98511 46.588 5.98511 46.488 5.97711 46.408C5.97711 46.32 5.97311 46.252 5.96511 46.204C5.95711 46.116 5.96511 46.064 5.98911 46.048C6.03711 46.016 6.08911 46.016 6.14511 46.048C6.28111 46.096 6.44511 46.16 6.63711 46.24C6.82911 46.312 6.99711 46.38 7.14111 46.444C7.20511 46.476 7.22911 46.532 7.21311 46.612C7.18911 46.692 7.14111 46.724 7.06911 46.708C6.96511 46.7 6.88911 46.712 6.84111 46.744C6.80111 46.768 6.77311 46.84 6.75711 46.96C6.65311 47.456 6.48911 47.936 6.26511 48.4C6.04111 48.856 5.78111 49.276 5.48511 49.66C5.18911 50.036 4.87711 50.364 4.54911 50.644C4.65311 50.756 4.74511 50.872 4.82511 50.992C4.90511 51.112 4.96511 51.232 5.00511 51.352C5.06911 51.552 5.05311 51.736 4.95711 51.904C4.86111 52.072 4.74911 52.164 4.62111 52.18C4.51711 52.188 4.43711 52.164 4.38111 52.108C4.33311 52.044 4.28911 51.936 4.24911 51.784C4.15311 51.472 4.02911 51.168 3.87711 50.872C3.72511 50.568 3.54511 50.304 3.33711 50.08V51.232C3.33711 51.672 3.34111 52.136 3.34911 52.624C3.35711 53.104 3.36111 53.56 3.36111 53.992C3.36911 54.424 3.37711 54.784 3.38511 55.072C3.39311 55.368 3.39711 55.54 3.39711 55.588C3.39711 55.652 3.32511 55.716 3.18111 55.78C3.04511 55.844 2.90911 55.876 2.77311 55.876ZM4.84911 55.468C4.77711 55.5 4.72511 55.476 4.69311 55.396C4.65311 55.308 4.60111 55.192 4.53711 55.048C4.47311 54.904 4.40511 54.76 4.33311 54.616C4.26911 54.472 4.21711 54.36 4.17711 54.28C4.15311 54.224 4.15711 54.184 4.18911 54.16C4.22911 54.136 4.31311 54.136 4.44111 54.16C4.49711 54.168 4.56511 54.18 4.64511 54.196C4.72511 54.204 4.82511 54.208 4.94511 54.208C5.02511 54.208 5.11311 54.208 5.20911 54.208C5.30511 54.208 5.40511 54.208 5.50911 54.208C5.56511 54.208 5.62111 54.208 5.67711 54.208C5.74111 54.208 5.80511 54.208 5.86911 54.208C5.95711 53.952 6.05311 53.644 6.15711 53.284C6.26111 52.916 6.36511 52.536 6.46911 52.144C6.57311 51.752 6.66111 51.376 6.73311 51.016C6.81311 50.648 6.86911 50.332 6.90111 50.068C6.91711 49.94 6.92111 49.836 6.91311 49.756C6.91311 49.668 6.90911 49.596 6.90111 49.54C6.88511 49.436 6.89311 49.376 6.92511 49.36C6.92511 49.36 6.92911 49.36 6.93711 49.36C6.96911 49.344 7.00511 49.344 7.04511 49.36C7.12511 49.392 7.24511 49.44 7.40511 49.504C7.57311 49.568 7.74111 49.636 7.90911 49.708C8.07711 49.772 8.20511 49.824 8.29311 49.864C8.36511 49.896 8.38511 49.948 8.35311 50.02C8.32911 50.092 8.27711 50.128 8.19711 50.128C8.08511 50.112 7.99711 50.116 7.93311 50.14C7.87711 50.156 7.82911 50.228 7.78911 50.356C7.71711 50.612 7.61711 50.908 7.48911 51.244C7.36911 51.58 7.23311 51.928 7.08111 52.288C6.93711 52.648 6.78911 52.992 6.63711 53.32C6.49311 53.648 6.36111 53.936 6.24111 54.184C6.63311 54.168 7.04111 54.148 7.46511 54.124C7.89711 54.1 8.31711 54.072 8.72511 54.04C9.14111 54 9.51311 53.964 9.84111 53.932C9.43311 53.188 8.94111 52.528 8.36511 51.952C8.35711 51.896 8.36911 51.852 8.40111 51.82C8.44111 51.788 8.48511 51.772 8.53311 51.772C8.88511 51.972 9.23711 52.216 9.58911 52.504C9.94911 52.792 10.2651 53.092 10.5371 53.404C10.8171 53.708 10.9971 53.996 11.0771 54.268C11.1491 54.492 11.1651 54.712 11.1251 54.928C11.0931 55.144 11.0011 55.284 10.8491 55.348C10.7611 55.388 10.6731 55.392 10.5851 55.36C10.4971 55.336 10.4291 55.256 10.3811 55.12C10.2851 54.84 10.1571 54.544 9.99711 54.232C9.66111 54.304 9.28111 54.38 8.85711 54.46C8.43311 54.532 7.99711 54.608 7.54911 54.688C7.10911 54.76 6.68511 54.828 6.27711 54.892C5.87711 54.956 5.52511 55.008 5.22111 55.048C5.11711 55.056 5.04511 55.076 5.00511 55.108C4.96511 55.148 4.94911 55.22 4.95711 55.324C4.95711 55.396 4.92111 55.444 4.84911 55.468ZM10.6331 50.848C10.2811 50.544 9.94511 50.164 9.62511 49.708C9.30511 49.252 9.04511 48.72 8.84511 48.112C8.64511 47.496 8.54511 46.808 8.54511 46.048H7.50111C7.50111 46.048 7.43311 46.052 7.29711 46.06C7.16911 46.06 7.02511 46.076 6.86511 46.108L6.75711 45.592C6.96511 45.64 7.14111 45.668 7.28511 45.676C7.42911 45.684 7.50111 45.688 7.50111 45.688H8.16111C8.22511 45.688 8.26511 45.668 8.28111 45.628C8.32111 45.588 8.37711 45.524 8.44911 45.436C8.52911 45.348 8.59311 45.28 8.64111 45.232C8.68111 45.184 8.71711 45.16 8.74911 45.16C8.78111 45.16 8.82111 45.18 8.86911 45.22C8.97311 45.284 9.10511 45.376 9.26511 45.496C9.42511 45.616 9.54511 45.712 9.62511 45.784C9.66511 45.816 9.68111 45.86 9.67311 45.916C9.67311 45.964 9.64111 46.008 9.57711 46.048C9.50511 46.08 9.42111 46.12 9.32511 46.168C9.23711 46.208 9.16511 46.244 9.10911 46.276C9.06111 46.3 9.02911 46.324 9.01311 46.348C8.99711 46.372 8.98911 46.42 8.98911 46.492C8.98911 46.94 9.06911 47.356 9.22911 47.74C9.39711 48.116 9.61711 48.464 9.88911 48.784C10.1611 49.096 10.4571 49.372 10.7771 49.612C11.1051 49.852 11.4291 50.056 11.7491 50.224C11.5171 50.256 11.2971 50.336 11.0891 50.464C10.8891 50.592 10.7371 50.72 10.6331 50.848ZM12.5291 55.72C12.4091 55.736 12.3411 55.688 12.3251 55.576C12.5731 55.168 12.7811 54.76 12.9491 54.352C13.1251 53.936 13.2651 53.468 13.3691 52.948C13.4811 52.428 13.5611 51.808 13.6091 51.088C13.6571 50.368 13.6771 49.5 13.6691 48.484C13.6691 47.868 13.6611 47.404 13.6451 47.092C13.6291 46.772 13.6091 46.544 13.5851 46.408C13.5611 46.264 13.5331 46.152 13.5011 46.072C13.4851 46.016 13.4931 45.972 13.5251 45.94C13.5571 45.908 13.6011 45.904 13.6571 45.928C13.7131 45.952 13.7971 45.996 13.9091 46.06C14.0211 46.124 14.1371 46.188 14.2571 46.252C14.3851 46.316 14.4851 46.368 14.5571 46.408H17.9891V45.736C17.9891 45.456 17.9611 45.268 17.9051 45.172C17.8651 45.132 17.8651 45.088 17.9051 45.04C17.9291 45.016 17.9651 45.008 18.0131 45.016C18.1491 45.032 18.3371 45.068 18.5771 45.124C18.8251 45.18 19.0251 45.228 19.1771 45.268C19.2571 45.292 19.2891 45.34 19.2731 45.412C19.2651 45.492 19.2211 45.532 19.1411 45.532C19.0611 45.54 18.9771 45.56 18.8891 45.592C18.8011 45.616 18.7571 45.688 18.7571 45.808V46.408L21.7211 46.42C21.7771 46.42 21.8171 46.4 21.8411 46.36C21.8651 46.336 21.9131 46.284 21.9851 46.204C22.0651 46.116 22.1451 46.032 22.2251 45.952C22.3051 45.864 22.3531 45.808 22.3691 45.784C22.4411 45.712 22.5131 45.708 22.5851 45.772C22.6331 45.804 22.7131 45.872 22.8251 45.976C22.9451 46.072 23.0611 46.168 23.1731 46.264C23.2931 46.36 23.3691 46.428 23.4011 46.468C23.4651 46.524 23.4891 46.592 23.4731 46.672C23.4571 46.744 23.4131 46.78 23.3411 46.78H14.4251V49.324C14.4251 49.964 14.4011 50.548 14.3531 51.076C14.8971 50.676 15.4091 50.24 15.8891 49.768C16.3691 49.296 16.7811 48.828 17.1251 48.364H15.4571C15.4571 48.364 15.3891 48.368 15.2531 48.376C15.1251 48.376 14.9771 48.392 14.8091 48.424L14.7131 47.908C14.9131 47.956 15.0851 47.984 15.2291 47.992C15.3731 48 15.4451 48.004 15.4451 48.004H17.3771C17.4571 47.892 17.5291 47.78 17.5931 47.668C17.6651 47.548 17.7291 47.436 17.7851 47.332C17.8731 47.172 17.9131 47.052 17.9051 46.972C17.8971 46.892 17.9131 46.84 17.9531 46.816C17.9771 46.8 18.0171 46.804 18.0731 46.828C18.1451 46.876 18.2371 46.94 18.3491 47.02C18.4691 47.092 18.5811 47.164 18.6851 47.236C18.7971 47.308 18.8811 47.368 18.9371 47.416C19.0011 47.456 19.0131 47.512 18.9731 47.584C18.9411 47.648 18.8851 47.672 18.8051 47.656C18.6851 47.616 18.5971 47.608 18.5411 47.632C18.4931 47.656 18.4371 47.712 18.3731 47.8C18.3491 47.832 18.3211 47.864 18.2891 47.896C18.2651 47.928 18.2411 47.964 18.2171 48.004H21.6611C21.7171 48.004 21.7611 47.988 21.7931 47.956C21.8331 47.908 21.9091 47.82 22.0211 47.692C22.1331 47.564 22.2091 47.48 22.2491 47.44C22.3131 47.368 22.3851 47.364 22.4651 47.428C22.5531 47.484 22.6731 47.584 22.8251 47.728C22.9771 47.864 23.0891 47.972 23.1611 48.052C23.2331 48.124 23.2571 48.196 23.2331 48.268C23.2171 48.332 23.1651 48.364 23.0771 48.364H19.8731C20.4011 48.86 20.9771 49.244 21.6011 49.516C22.2331 49.78 22.9131 49.98 23.6411 50.116C23.4251 50.204 23.2331 50.324 23.0651 50.476C22.8971 50.62 22.7691 50.76 22.6811 50.896C22.0411 50.592 21.4491 50.236 20.9051 49.828C20.3611 49.412 19.8611 48.924 19.4051 48.364H17.9291C17.6651 48.684 17.3851 48.996 17.0891 49.3C16.8011 49.604 16.4851 49.896 16.1411 50.176C16.2131 50.208 16.2811 50.244 16.3451 50.284C16.4171 50.324 16.4811 50.356 16.5371 50.38H18.0851V49.432C18.0851 49.288 18.0771 49.172 18.0611 49.084C18.0451 48.988 18.0251 48.916 18.0011 48.868C17.9691 48.82 17.9691 48.78 18.0011 48.748C18.0251 48.716 18.0651 48.704 18.1211 48.712C18.2411 48.736 18.4171 48.772 18.6491 48.82C18.8811 48.868 19.0651 48.912 19.2011 48.952C19.2651 48.976 19.2971 49.024 19.2971 49.096C19.2891 49.168 19.2451 49.212 19.1651 49.228C19.0771 49.236 18.9891 49.252 18.9011 49.276C18.8211 49.3 18.7811 49.376 18.7811 49.504V50.38H20.3531C20.4091 50.38 20.4531 50.364 20.4851 50.332C20.5171 50.3 20.5571 50.26 20.6051 50.212C20.6531 50.156 20.6971 50.112 20.7371 50.08C20.7851 50.04 20.8211 50.02 20.8451 50.02C20.8771 50.02 20.9211 50.04 20.9771 50.08C21.0571 50.136 21.1571 50.216 21.2771 50.32C21.3971 50.416 21.4851 50.496 21.5411 50.56C21.6531 50.656 21.6451 50.732 21.5171 50.788C21.4771 50.804 21.4411 50.82 21.4091 50.836C21.3851 50.852 21.3531 50.868 21.3131 50.884C21.2411 50.908 21.2051 50.968 21.2051 51.064C21.2051 51.312 21.2091 51.588 21.2171 51.892C21.2251 52.188 21.2371 52.476 21.2531 52.756C21.2691 53.036 21.2811 53.272 21.2891 53.464C21.2971 53.656 21.3011 53.776 21.3011 53.824C21.3011 53.904 21.2411 53.976 21.1211 54.04C21.0011 54.096 20.8731 54.124 20.7371 54.124C20.5851 54.124 20.5091 54.064 20.5091 53.944V53.608H18.7811V54.532C18.7811 54.652 18.8211 54.748 18.9011 54.82C18.9811 54.884 19.1211 54.928 19.3211 54.952C19.4411 54.96 19.6091 54.968 19.8251 54.976C20.0491 54.984 20.2891 54.984 20.5451 54.976C20.8091 54.968 21.0691 54.956 21.3251 54.94C21.5811 54.916 21.8051 54.888 21.9971 54.856C22.1251 54.832 22.2131 54.792 22.2611 54.736C22.3011 54.68 22.3491 54.56 22.4051 54.376C22.4611 54.192 22.5171 53.988 22.5731 53.764C22.6291 53.54 22.6771 53.336 22.7171 53.152C22.7651 52.968 22.7931 52.848 22.8011 52.792C22.9051 52.72 22.9851 52.732 23.0411 52.828C23.0411 52.86 23.0371 52.96 23.0291 53.128C23.0211 53.288 23.0131 53.468 23.0051 53.668C22.9971 53.868 22.9891 54.048 22.9811 54.208C22.9811 54.36 22.9811 54.452 22.9811 54.484C22.9811 54.564 22.9931 54.62 23.0171 54.652C23.0491 54.676 23.1131 54.708 23.2091 54.748C23.3131 54.788 23.3811 54.836 23.4131 54.892C23.4531 54.94 23.4731 55 23.4731 55.072C23.4731 55.16 23.4291 55.24 23.3411 55.312C23.2611 55.384 23.1211 55.44 22.9211 55.48C22.6811 55.528 22.3731 55.564 21.9971 55.588C21.6291 55.612 21.2491 55.628 20.8571 55.636C20.4651 55.652 20.1051 55.656 19.7771 55.648C19.4491 55.64 19.2051 55.632 19.0451 55.624C18.6771 55.592 18.4251 55.512 18.2891 55.384C18.1531 55.256 18.0851 55.08 18.0851 54.856V53.608H16.4051V54.112C16.4051 54.176 16.3491 54.236 16.2371 54.292C16.1251 54.348 16.0011 54.376 15.8651 54.376C15.7851 54.376 15.7211 54.36 15.6731 54.328C15.6251 54.296 15.6011 54.236 15.6011 54.148C15.6011 54.108 15.6051 53.984 15.6131 53.776C15.6211 53.568 15.6331 53.312 15.6491 53.008C15.6651 52.704 15.6771 52.388 15.6851 52.06C15.6931 51.732 15.6971 51.436 15.6971 51.172V50.524C15.4891 50.676 15.2691 50.828 15.0371 50.98C14.8131 51.124 14.5731 51.268 14.3171 51.412C14.2051 52.372 14.0011 53.192 13.7051 53.872C13.4091 54.544 13.0171 55.16 12.5291 55.72ZM18.7811 53.236H20.5091V52.132H18.7811V53.236ZM16.4051 53.236H18.0851V52.132H16.4051V53.236ZM18.7811 51.772H20.5091V50.74H18.7811V51.772ZM16.4051 51.772H18.0851V50.74H16.4051V51.772ZM28.4564 55.144L27.9644 54.82L33.5084 46.144L34.0124 46.468L28.4564 55.144ZM39.7459 48.904C39.7459 49.216 39.8219 49.488 39.9739 49.72C40.1259 49.952 40.3099 50.148 40.5259 50.308C40.7419 50.46 41.0459 50.656 41.4379 50.896C41.8539 51.144 42.1779 51.352 42.4099 51.52C42.6419 51.688 42.8379 51.904 42.9979 52.168C43.1659 52.424 43.2499 52.732 43.2499 53.092C43.2499 53.476 43.1539 53.824 42.9619 54.136C42.7699 54.448 42.4859 54.696 42.1099 54.88C41.7419 55.056 41.2979 55.144 40.7779 55.144C40.1619 55.144 39.5979 55.004 39.0859 54.724C39.0459 54.7 39.0179 54.672 39.0019 54.64C38.9939 54.608 38.9859 54.56 38.9779 54.496L38.8219 52.864C38.8139 52.832 38.8299 52.812 38.8699 52.804C38.9179 52.796 38.9459 52.808 38.9539 52.84C39.0739 53.408 39.3099 53.904 39.6619 54.328C40.0139 54.744 40.4779 54.952 41.0539 54.952C41.4539 54.952 41.7899 54.844 42.0619 54.628C42.3419 54.404 42.4819 54.052 42.4819 53.572C42.4819 53.212 42.4019 52.9 42.2419 52.636C42.0819 52.372 41.8859 52.156 41.6539 51.988C41.4299 51.812 41.1219 51.608 40.7299 51.376C40.3459 51.144 40.0419 50.944 39.8179 50.776C39.6019 50.608 39.4179 50.396 39.2659 50.14C39.1139 49.884 39.0379 49.584 39.0379 49.24C39.0379 48.84 39.1419 48.5 39.3499 48.22C39.5659 47.932 39.8419 47.72 40.1779 47.584C40.5219 47.44 40.8859 47.368 41.2699 47.368C41.7419 47.368 42.2099 47.464 42.6739 47.656C42.7939 47.696 42.8539 47.764 42.8539 47.86L42.9379 49.228C42.9379 49.268 42.9139 49.288 42.8659 49.288C42.8259 49.288 42.8019 49.272 42.7939 49.24C42.7379 48.824 42.5699 48.44 42.2899 48.088C42.0099 47.728 41.6059 47.548 41.0779 47.548C40.6299 47.548 40.2939 47.68 40.0699 47.944C39.8539 48.2 39.7459 48.52 39.7459 48.904ZM49.0724 50.368C49.0964 50.368 49.1084 50.392 49.1084 50.44C49.1084 50.488 49.0964 50.512 49.0724 50.512C48.8724 50.512 48.6964 50.584 48.5444 50.728C48.4004 50.864 48.2684 51.1 48.1484 51.436L46.6844 55.336C46.3884 56.112 46.1084 56.716 45.8444 57.148C45.5884 57.588 45.3204 57.9 45.0404 58.084C44.7684 58.276 44.4524 58.372 44.0924 58.372C43.9164 58.372 43.7724 58.332 43.6604 58.252C43.5404 58.172 43.4804 58.056 43.4804 57.904C43.4804 57.792 43.5164 57.704 43.5884 57.64C43.6604 57.576 43.7484 57.544 43.8524 57.544C43.9564 57.544 44.0444 57.556 44.1164 57.58C44.1884 57.604 44.2644 57.644 44.3444 57.7C44.3604 57.708 44.4044 57.732 44.4764 57.772C44.5564 57.812 44.6524 57.832 44.7644 57.832C44.9644 57.832 45.1524 57.74 45.3284 57.556C45.5044 57.38 45.6924 57.08 45.8924 56.656C46.1004 56.232 46.3484 55.64 46.6364 54.88L46.6244 55.216L44.7284 51.364C44.5444 51.012 44.4044 50.784 44.3084 50.68C44.2124 50.568 44.0884 50.512 43.9364 50.512C43.9204 50.512 43.9124 50.488 43.9124 50.44C43.9124 50.392 43.9204 50.368 43.9364 50.368L44.3444 50.38C44.4404 50.388 44.5724 50.392 44.7404 50.392L45.5084 50.38C45.6204 50.372 45.7764 50.368 45.9764 50.368C45.9924 50.368 46.0004 50.392 46.0004 50.44C46.0004 50.488 45.9924 50.512 45.9764 50.512C45.5124 50.512 45.2804 50.604 45.2804 50.788C45.2804 50.836 45.3004 50.9 45.3404 50.98L46.9844 54.364L46.7084 54.856L47.8844 51.472C47.9484 51.28 47.9804 51.128 47.9804 51.016C47.9804 50.832 47.9084 50.704 47.7644 50.632C47.6204 50.552 47.3844 50.512 47.0564 50.512C47.0404 50.512 47.0324 50.488 47.0324 50.44C47.0324 50.392 47.0404 50.368 47.0564 50.368C47.2724 50.368 47.4364 50.372 47.5484 50.38L48.2684 50.392L48.7004 50.38C48.7804 50.372 48.9044 50.368 49.0724 50.368ZM51.8872 55.156C51.4232 55.156 51.0112 55.044 50.6512 54.82C50.2992 54.588 50.0272 54.28 49.8352 53.896C49.6432 53.504 49.5472 53.08 49.5472 52.624C49.5472 52.104 49.6712 51.664 49.9192 51.304C50.1752 50.936 50.4992 50.664 50.8912 50.488C51.2912 50.304 51.6952 50.212 52.1032 50.212C52.5752 50.212 52.9872 50.328 53.3392 50.56C53.6912 50.792 53.9592 51.1 54.1432 51.484C54.3352 51.86 54.4312 52.26 54.4312 52.684C54.4312 53.18 54.3152 53.616 54.0832 53.992C53.8512 54.36 53.5392 54.648 53.1472 54.856C52.7632 55.056 52.3432 55.156 51.8872 55.156ZM52.2352 54.928C52.6752 54.928 53.0152 54.772 53.2552 54.46C53.4952 54.148 53.6152 53.668 53.6152 53.02C53.6152 52.524 53.5312 52.08 53.3632 51.688C53.2032 51.296 52.9792 50.992 52.6912 50.776C52.4032 50.552 52.0752 50.44 51.7072 50.44C51.2752 50.44 50.9392 50.596 50.6992 50.908C50.4672 51.22 50.3512 51.668 50.3512 52.252C50.3512 52.74 50.4312 53.188 50.5912 53.596C50.7512 54.004 50.9752 54.328 51.2632 54.568C51.5512 54.808 51.8752 54.928 52.2352 54.928ZM55.2414 53.02C55.2254 53.028 55.2094 53 55.1934 52.936C55.1854 52.872 55.1814 52.808 55.1814 52.744C55.1814 52.592 55.1934 52.516 55.2174 52.516L58.3494 51.952C58.3654 51.944 58.3774 51.968 58.3854 52.024C58.4014 52.072 58.4094 52.128 58.4094 52.192C58.4094 52.352 58.3894 52.44 58.3494 52.456L55.2414 53.02ZM62.5043 55.072C62.4723 55.088 62.4403 55.096 62.4083 55.096C62.2883 55.096 62.1843 55.004 62.0963 54.82C62.0083 54.636 61.9643 54.392 61.9643 54.088V51.82C61.9643 50.924 61.7123 50.476 61.2083 50.476C60.9363 50.476 60.7283 50.568 60.5843 50.752C60.4483 50.928 60.3563 51.132 60.3083 51.364C60.2763 51.516 60.2283 51.636 60.1643 51.724C60.1083 51.812 60.0043 51.856 59.8523 51.856C59.7243 51.856 59.6243 51.82 59.5523 51.748C59.4883 51.676 59.4563 51.592 59.4563 51.496C59.4563 51.304 59.5803 51.112 59.8283 50.92C60.0763 50.728 60.3723 50.568 60.7163 50.44C61.0603 50.312 61.3683 50.248 61.6403 50.248C61.9683 50.248 62.2163 50.352 62.3843 50.56C62.5523 50.768 62.6363 51.068 62.6363 51.46V53.704C62.6363 53.984 62.6723 54.188 62.7443 54.316C62.8163 54.444 62.9323 54.508 63.0923 54.508C63.2523 54.508 63.4523 54.456 63.6923 54.352H63.7163C63.7483 54.352 63.7683 54.372 63.7763 54.412C63.7843 54.444 63.7723 54.468 63.7403 54.484L62.5043 55.072ZM60.3443 55.084C60.0483 55.084 59.8163 55.008 59.6483 54.856C59.4883 54.696 59.4083 54.496 59.4083 54.256C59.4083 54.016 59.5043 53.808 59.6963 53.632C59.8883 53.456 60.2043 53.288 60.6443 53.128L62.0843 52.588L62.1203 52.744L60.8483 53.236C60.6243 53.324 60.4603 53.428 60.3563 53.548C60.2603 53.66 60.2123 53.796 60.2123 53.956C60.2123 54.148 60.2723 54.312 60.3923 54.448C60.5203 54.576 60.6843 54.64 60.8843 54.64C61.0443 54.64 61.2363 54.576 61.4603 54.448L62.2163 53.992L62.2403 54.148L61.3523 54.724C61.1523 54.852 60.9763 54.944 60.8243 55C60.6723 55.056 60.5123 55.084 60.3443 55.084ZM67.5317 55C67.5077 55 67.4957 54.976 67.4957 54.928C67.4957 54.88 67.5077 54.856 67.5317 54.856C67.7477 54.856 67.9077 54.836 68.0117 54.796C68.1157 54.748 68.1837 54.668 68.2157 54.556C68.2557 54.444 68.2757 54.268 68.2757 54.028V52.084C68.2757 51.604 68.1837 51.256 67.9997 51.04C67.8237 50.816 67.5477 50.704 67.1717 50.704C66.8757 50.704 66.5757 50.796 66.2717 50.98C65.9757 51.164 65.7197 51.416 65.5037 51.736L65.4557 51.592C65.8077 51.12 66.1557 50.772 66.4997 50.548C66.8437 50.324 67.1997 50.212 67.5677 50.212C68.0077 50.212 68.3477 50.34 68.5877 50.596C68.8357 50.844 68.9597 51.204 68.9597 51.676V54.028C68.9597 54.268 68.9757 54.444 69.0077 54.556C69.0477 54.668 69.1197 54.748 69.2237 54.796C69.3277 54.836 69.4877 54.856 69.7037 54.856C69.7277 54.856 69.7397 54.88 69.7397 54.928C69.7397 54.976 69.7277 55 69.7037 55C69.5197 55 69.3757 54.996 69.2717 54.988L68.6237 54.976L67.9637 54.988C67.8597 54.996 67.7157 55 67.5317 55ZM64.3037 55C64.2797 55 64.2677 54.976 64.2677 54.928C64.2677 54.88 64.2797 54.856 64.3037 54.856C64.5197 54.856 64.6797 54.836 64.7837 54.796C64.8877 54.748 64.9557 54.668 64.9877 54.556C65.0277 54.444 65.0477 54.268 65.0477 54.028V51.652C65.0477 51.38 65.0157 51.184 64.9517 51.064C64.8877 50.944 64.7797 50.884 64.6277 50.884C64.4997 50.884 64.2837 50.944 63.9797 51.064H63.9557C63.9237 51.064 63.8997 51.048 63.8837 51.016C63.8757 50.976 63.8877 50.948 63.9197 50.932L65.3117 50.272C65.3277 50.264 65.3517 50.26 65.3837 50.26C65.4557 50.26 65.5317 50.352 65.6117 50.536C65.6917 50.72 65.7317 50.956 65.7317 51.244V54.028C65.7317 54.268 65.7477 54.444 65.7797 54.556C65.8197 54.668 65.8917 54.748 65.9957 54.796C66.0997 54.836 66.2597 54.856 66.4757 54.856C66.4997 54.856 66.5117 54.88 66.5117 54.928C66.5117 54.976 66.4997 55 66.4757 55C66.2917 55 66.1477 54.996 66.0437 54.988L65.3957 54.976L64.7357 54.988C64.6317 54.996 64.4877 55 64.3037 55Z" fill="white"/>
</svg>
