<svg width="112" height="58" viewBox="0 0 112 58" fill="none" xmlns="http://www.w3.org/2000/svg">
<path d="M111.5 23.0924C104.179 15.7712 95.4872 9.96372 85.9216 6.00152C76.356 2.03932 66.1037 -2.26288e-07 55.75 0C45.3962 2.26288e-07 35.1439 2.03932 25.5783 6.00152C16.0127 9.96372 7.32119 15.7712 0 23.0924L34.74 57.8323C37.499 55.0733 40.7745 52.8847 44.3794 51.3915C47.9843 49.8983 51.848 49.1297 55.75 49.1297C59.6519 49.1297 63.5156 49.8983 67.1205 51.3915C70.7254 52.8847 74.0009 55.0733 76.76 57.8323L111.5 23.0924Z" fill="white"/>
<path d="M111.5 23.0924C109.151 20.7431 106.655 18.5446 104.028 16.5102L73.9443 55.3518C74.9342 56.1185 75.8746 56.947 76.76 57.8323L111.5 23.0924Z" fill="#D2BD96"/>
<path d="M0 23.0924C2.36582 20.7266 4.87984 18.5137 7.52681 16.4673L37.5765 55.3356C36.579 56.1068 35.6315 56.9408 34.74 57.8323L0 23.0924Z" fill="#D2BD96"/>
<path d="M111.5 23.0924C110.309 21.9017 109.081 20.7494 107.816 19.6374L75.3717 56.5303C75.8482 56.9494 76.3112 57.3836 76.76 57.8323L111.5 23.0924Z" fill="#727444"/>
<path d="M0 23.0924C1.15489 21.9375 2.34538 20.8188 3.56976 19.7378L36.0853 56.5681C35.6238 56.9755 35.1752 57.3971 34.74 57.8323L0 23.0924Z" fill="#727444"/>
</svg>
